<?xml version="1.0" encoding="utf-8"?>
<!-- Generator: Adobe Illustrator 16.0.0, SVG Export Plug-In . SVG Version: 6.00 Build 0)  -->
<!DOCTYPE svg PUBLIC "-//W3C//DTD SVG 1.1//EN" "http://www.w3.org/Graphics/SVG/1.1/DTD/svg11.dtd">
<svg version="1.1" id="Layer_1" xmlns="http://www.w3.org/2000/svg" xmlns:xlink="http://www.w3.org/1999/xlink" x="0px" y="0px"
	 width="50px" height="50px" viewBox="0 0 50 50" enable-background="new 0 0 50 50" xml:space="preserve">
<g>
	<path fill="#DBDCDE" d="M25.001,0c-13.808,0-25,11.192-25,25c0,13.807,11.192,25,25,25c13.807,0,25-11.193,25-25
		C50.001,11.192,38.808,0,25.001,0z M25.031,37.441c-1.033,0-3.029-0.208-3.029-0.208c-2.802,2.134-9.153,4.377-10.176,4.601
		c-1.021,0.224-0.681-0.375-0.681-0.375c3.443-3.142,4.06-6.42,4.06-6.42c-4.558-2.47-7.545-6.611-7.545-11.304
		c0-7.568,7.777-13.704,17.371-13.704c9.595,0,17.372,6.136,17.372,13.704C42.403,31.306,34.626,37.441,25.031,37.441z"/>
	<path fill="#DBDCDE" d="M17.463,19.965h-5.189c-0.488,0-0.884,0.387-0.884,0.875s0.396,0.875,0.884,0.875h1.771v6.3
		c0,0.227,0.05,0.463,0.212,0.624c0.158,0.16,0.337,0.268,0.564,0.268h0.188c0.226,0,0.409-0.107,0.567-0.267
		c0.162-0.161,0.217-0.397,0.217-0.625v-6.3h1.669c0.487,0,0.883-0.387,0.883-0.875S17.95,19.965,17.463,19.965z"/>
	<path fill="#DBDCDE" d="M29.933,27.156h-2.477v-6.29c0-0.528-0.443-0.958-0.973-0.958c-0.527,0-0.971,0.43-0.971,0.958v6.844
		c0,0.053,0.053,0.104,0.062,0.154c-0.01,0.049,0.008,0.145,0.008,0.196c0,0.442,0.382,0.846,0.825,0.846h3.525
		c0.443,0,0.803-0.433,0.803-0.876C30.735,27.589,30.376,27.156,29.933,27.156z"/>
	<path fill="#DBDCDE" d="M37.646,27.507l-2.689-3.532l2.43-2.431c0.329-0.329,0.329-0.862,0-1.191s-0.91-0.329-1.238,0l-3.055,3.009
		v-2.495c0-0.528-0.347-0.958-0.875-0.958s-0.875,0.43-0.875,0.958v7.054c0,0.53,0.347,0.959,0.875,0.959s0.875-0.429,0.875-0.959
		v-2.176l0.593-0.546l2.566,3.338c0.284,0.379,0.833,0.454,1.21,0.17C37.841,28.422,37.929,27.885,37.646,27.507z"/>
	<path fill="#DBDCDE" d="M24.89,27.736l-2.587-7.075c0,0-0.006-0.005-0.009-0.007c-0.165-0.432-0.643-0.746-1.211-0.746
		c-0.632,0-1.154,0.387-1.258,0.891c-0.018,0.037-0.035,0.075-0.05,0.117l-2.543,6.82c-0.157,0.447,0.078,0.937,0.524,1.093
		c0.447,0.157,0.938-0.121,1.094-0.567l0.44-1.3h3.54l0.439,1.3c0.157,0.446,0.647,0.703,1.094,0.546
		C24.811,28.651,25.046,28.184,24.89,27.736z M19.854,25.407l1.188-3.374c0.014,0,0.025-0.007,0.039-0.007l1.188,3.381H19.854z"/>
</g>
</svg>
