<?xml version="1.0" encoding="utf-8"?>
<!-- Generator: Adobe Illustrator 16.0.0, SVG Export Plug-In . SVG Version: 6.00 Build 0)  -->
<!DOCTYPE svg PUBLIC "-//W3C//DTD SVG 1.1//EN" "http://www.w3.org/Graphics/SVG/1.1/DTD/svg11.dtd">
<svg version="1.1" id="Layer_1" xmlns="http://www.w3.org/2000/svg" xmlns:xlink="http://www.w3.org/1999/xlink" x="0px" y="0px"
	 width="50px" height="50px" viewBox="0 0 50 50" enable-background="new 0 0 50 50" xml:space="preserve">
<g>
	<circle fill="#DBDCDE" cx="12.523" cy="24.868" r="1.685"/>
	<circle fill="#DBDCDE" cx="27.539" cy="24.868" r="1.685"/>
	<circle fill="#DBDCDE" cx="37.636" cy="24.868" r="1.685"/>
	<path fill="#DBDCDE" d="M25,0C11.193,0,0,11.192,0,25c0,13.807,11.193,25,25,25s25-11.193,25-25C50,11.192,38.807,0,25,0z
		 M13.088,28.858c-1.577,0-2.215-1.128-2.215-1.128v0.787H8.347V17.633h2.526v4.188c1.166-1.031,2.229-1.031,2.229-1.031
		c3.558,0,3.688,3.994,3.688,3.994C16.789,28.723,13.088,28.858,13.088,28.858z M21.369,21.522v6.995h-2.527v-6.396
		c0-2.229-1.166-2.175-1.166-2.175V17.42C21.563,17.42,21.369,21.522,21.369,21.522z M31.97,24.867c0,3.984-4.432,3.991-4.432,3.991
		c-4.472,0-4.331-3.991-4.331-3.991c0-4.044,4.331-4.045,4.331-4.045C32.113,20.822,31.97,24.867,31.97,24.867z M41.776,28.484
		c0,4.137-3.857,4.114-3.857,4.114h-1.001v-2.332h0.613c1.855,0,1.72-1.925,1.72-1.925V27.73c-0.778,1.06-2.327,0.998-2.327,0.998
		c-3.646,0-3.618-3.889-3.618-3.889c0-4.174,3.728-4.018,3.728-4.018c1.445,0,2.218,0.998,2.218,0.998v-0.883h2.525V28.484z"/>
</g>
</svg>
