<?xml version="1.0" encoding="utf-8"?>
<!-- Generator: Adobe Illustrator 16.0.0, SVG Export Plug-In . SVG Version: 6.00 Build 0)  -->
<!DOCTYPE svg PUBLIC "-//W3C//DTD SVG 1.1//EN" "http://www.w3.org/Graphics/SVG/1.1/DTD/svg11.dtd">
<svg version="1.1" id="Layer_1" xmlns="http://www.w3.org/2000/svg" xmlns:xlink="http://www.w3.org/1999/xlink" x="0px" y="0px"
	 width="50px" height="50px" viewBox="0 0 50 50" enable-background="new 0 0 50 50" xml:space="preserve">
<g>
	<path fill="#DBDCDE" d="M36.469,18.945c0-2.979-2.415-5.395-5.395-5.395H18.928c-2.979,0-5.394,2.416-5.394,5.395v12.146
		c0,2.979,2.415,5.395,5.394,5.395h12.146c2.979,0,5.395-2.415,5.395-5.395V18.945z M25,32.374c-4.034,0-7.305-3.271-7.305-7.305
		s3.271-7.306,7.305-7.306s7.305,3.271,7.305,7.306S29.034,32.374,25,32.374z M32.549,19.188c-0.94,0-1.702-0.762-1.702-1.702
		c0-0.939,0.762-1.701,1.702-1.701c0.939,0,1.701,0.762,1.701,1.701C34.25,18.427,33.488,19.188,32.549,19.188z"/>
	<circle fill="#DBDCDE" cx="25" cy="25.069" r="4.735"/>
	<path fill="#DBDCDE" d="M25,0C11.193,0,0,11.192,0,25c0,13.807,11.193,25,25,25c13.808,0,25-11.193,25-25C50,11.192,38.808,0,25,0z
		 M38.995,30.95c0,4.488-3.557,8.062-8.045,8.062h-11.9c-4.488,0-8.237-3.574-8.237-8.062V19.049c0-4.488,3.749-8.219,8.237-8.219
		h11.9c4.488,0,8.045,3.73,8.045,8.219V30.95z"/>
</g>
</svg>
